<svg width="26" height="26" viewBox="0 0 26 26" fill="none" xmlns="http://www.w3.org/2000/svg">
<g clip-path="url(#clip0_1989_17106)">
<path d="M13 0.0509949C7.99721 0.0509949 4.9155 2.87286 4.90698 2.8776C4.90698 2.8776 4.77887 3.03753 4.75491 3.14382C4.56026 4.00784 4.37842 5.16586 4.37842 6.01086C4.37842 13.1906 10.433 19.0094 17.6127 19.0094C20.3774 19.0094 23.4534 17.6843 25.5121 16.0912C25.5581 16.0555 25.7042 15.8161 25.7042 15.8161C25.7133 15.7607 25.9999 14.6192 25.9999 13.0509C26 5.87127 20.1797 0.0509949 13 0.0509949Z" fill="#FEF056"/>
<path d="M17.6116 18.642C10.4319 18.642 4.61164 12.8218 4.61164 5.64204C4.61164 4.69304 4.71395 3.76836 4.90707 2.87717C1.91732 5.25897 0 8.93094 0 13.0506C0 16.1578 1.09016 19.0105 2.90884 21.2469L23.0912 21.2471C24.3509 19.6987 25.2635 17.8505 25.7043 15.8157C23.4836 17.5844 20.6713 18.642 17.6116 18.642Z" fill="#FBDE4C"/>
<path d="M21.8329 0H9.84797L8.79956 20.8307L9.84797 25.6662C10.4945 25.8272 11.1602 25.9398 11.8409 26H14.1565C16.0614 25.8314 17.8552 25.2503 19.4427 24.343L19.6092 24.0204L20.1102 23.9345C21.236 23.198 22.2424 22.2908 23.0912 21.2475V1.2583C23.0911 0.563333 22.5278 0 21.8329 0Z" fill="#26A4C0"/>
<path d="M4.16718 0C3.47227 0 2.90894 0.563333 2.90894 1.2583V21.2473C3.59192 22.0872 4.37768 22.8401 5.247 23.487L9.84798 21.6048V20.143L9.20364 16.2134L9.84798 15.542V14.0802L9.39446 10.1407L9.84798 9.47924V0L4.16718 0Z" fill="#2490A9"/>
<path d="M12.6459 7.14754C11.7935 7.11914 11.0974 6.67872 11.0974 6.22413C11.0974 5.98264 11.3105 5.62746 11.5805 5.62746C11.8788 5.62746 12.1203 6.04657 12.6459 6.13889V4.98821C11.9924 4.73958 11.2253 4.43416 11.2253 3.52498C11.2253 2.62288 11.893 2.18959 12.6459 2.08305V1.88417C12.6459 1.78471 12.7595 1.69238 12.9158 1.69238C13.0507 1.69238 13.1857 1.78471 13.1857 1.88417V2.06174C13.6261 2.07596 14.4571 2.18959 14.4571 2.67972C14.4571 2.87151 14.3293 3.26217 14.0167 3.26217C13.7823 3.26217 13.6473 3.0349 13.1857 2.99937V4.03641C13.8321 4.2779 14.5849 4.61178 14.5849 5.57067C14.5849 6.4514 14.0167 6.98415 13.1857 7.11914V7.32516C13.1857 7.42457 13.0507 7.51694 12.9157 7.51694C12.7595 7.51694 12.6458 7.42457 12.6458 7.32516L12.6459 7.14754ZM12.7169 3.86593V3.02068C12.3972 3.08461 12.2623 3.24795 12.2623 3.41848C12.2623 3.62444 12.447 3.7523 12.7169 3.86593ZM13.1147 5.18V6.13181C13.3561 6.07496 13.5479 5.94002 13.5479 5.6843C13.5479 5.44989 13.3704 5.30072 13.1147 5.18Z" fill="#FBDE4C"/>
<path d="M15.8584 3.92209H18.6806V5.04366H15.8584V3.92209Z" fill="#FBDE4C"/>
<path d="M7.02197 3.92209H9.84415V5.04366H7.02197V3.92209Z" fill="#FFC344"/>
<path d="M5.24707 9.47949H9.84805V14.0805H5.24707V9.47949Z" fill="white"/>
<path d="M11.6465 11.3467H19.9836V12.2133H11.6465V11.3467Z" fill="white"/>
<path d="M5.24707 15.542H9.84805V20.143H5.24707V15.542Z" fill="white"/>
<path d="M11.7097 17.4092H20.0468V18.2758H11.7097V17.4092Z" fill="white"/>
<path d="M5.24707 23.4866C6.60187 24.4948 8.15968 25.2453 9.84805 25.6658V21.6045H5.24707V23.4866Z" fill="white"/>
<path d="M20.1102 23.9342V23.4717H11.7732V24.3383H19.4504C19.6745 24.2101 19.8946 24.0752 20.1102 23.9342Z" fill="white"/>
<path d="M8.55958 13.6823L6.22656 11.3493L7.30801 10.2678L8.55958 11.5194L10.787 9.29199L11.8685 10.3734L8.55958 13.6823Z" fill="#46DC00"/>
<path d="M8.55958 19.9106L6.22656 17.5776L7.30801 16.4961L8.55958 17.7477L10.787 15.5203L11.8685 16.6017L8.55958 19.9106Z" fill="#46DC00"/>
</g>
<defs>
<clipPath id="clip0_1989_17106">
<rect width="26" height="26" fill="white"/>
</clipPath>
</defs>
</svg>
