<svg width="26" height="26" viewBox="0 0 26 26" fill="none" xmlns="http://www.w3.org/2000/svg">
<g clip-path="url(#clip0_1989_16924)">
<path d="M13 0C6.0978 0 0.502441 5.59536 0.502441 12.4976L7.55618 17.146L25.4776 13.2094C25.4909 12.9738 25.4976 12.7365 25.4976 12.4976C25.4976 5.59536 19.9023 0 13 0Z" fill="#9BD069"/>
<path d="M17.2774 13.209C15.8352 13.209 14.694 11.9703 14.8334 10.5349C14.8346 10.5225 14.8357 10.5102 14.8368 10.4979C14.8747 10.0726 15.0937 9.68738 15.4311 9.42557C15.6534 9.25305 15.7965 8.98325 15.7965 8.67997C15.7569 8.44248 15.9694 7.71998 15.3143 7.3523C14.8146 7.07181 14.7288 6.44542 14.9966 6.04314C15.0225 6.00417 15.0383 5.96443 15.0432 5.92404H15.0462C15.0462 5.9047 15.0456 5.88547 15.0447 5.86634H15.0462V3.83738C15.0462 2.61466 14.055 1.62348 12.8323 1.62348L11.6506 1.59443C11.5549 1.59209 11.4685 1.54478 11.4052 1.47299C11.3103 1.36549 11.0882 1.29004 10.8293 1.29004C10.5705 1.29004 10.3483 1.36549 10.2534 1.47299C10.1901 1.54478 10.1037 1.59209 10.008 1.59443L8.82636 1.62348C7.60364 1.62348 6.61246 2.61466 6.61246 3.83738V5.86639H6.61394C6.61302 5.88552 6.61246 5.90475 6.61246 5.92409H6.61546C6.62513 6.00483 6.67804 6.08308 6.76855 6.15771V6.85859V6.85869V8.89182V10.1219C6.76855 11.0898 7.10663 11.9771 7.67008 12.6738C8.07221 13.1711 8.0422 13.8899 7.60939 14.3606C7.60049 14.3703 7.59158 14.3799 7.58268 14.3897C6.95211 15.0748 5.83008 14.8921 5.44286 14.0452C5.09781 13.2906 4.83076 12.5046 4.64343 11.7005C4.09595 9.35012 0.565162 9.54671 0.505992 12.2161V12.2165C0.437868 15.2982 1.51035 18.1394 3.31962 20.3561C5.54934 23.088 8.89738 24.1515 12.6093 24.2679C12.6273 24.2685 12.5913 24.2675 12.6093 24.2679C19.4 24.4513 25.1004 19.9052 25.4769 13.209H17.2774Z" fill="#69B76B"/>
<path d="M20.0531 25.4265H18.9049C18.6331 25.4265 18.4128 25.2062 18.4128 24.9345C18.4128 24.6627 18.6331 24.4424 18.9049 24.4424H20.0531C20.3249 24.4424 20.5452 24.6627 20.5452 24.9345C20.5452 25.2062 20.3249 25.4265 20.0531 25.4265Z" fill="#FFBE82"/>
<path d="M16.81 22.5099C16.7329 22.0353 17.2908 19.1212 14.8386 16.652V16.6544C14.4638 16.2769 14.0648 15.9556 13.5975 15.665C13.5975 15.6647 13.5975 15.6643 13.5975 15.664C13.5923 15.6607 13.4776 15.5912 13.4723 15.588V15.5891C12.4611 14.9909 11.2819 14.6464 10.0219 14.6464C9.89937 14.6464 9.77757 14.6497 9.65663 14.6562C8.70387 14.7071 7.81042 15.1352 7.16719 15.8399C7.15941 15.8485 7.15162 15.857 7.14379 15.8655C6.5292 16.5384 6.18848 17.4169 6.18848 18.3282V22.9449C7.91971 24.0834 9.92521 24.7964 12.062 24.9597C12.4731 24.9911 16.223 23.0031 16.81 22.5099Z" fill="#2490A9"/>
<path d="M10.022 14.6464C8.77851 14.6464 7.61374 14.9816 6.61142 15.5652V15.5644C6.60593 15.5676 6.51623 15.6206 6.51007 15.6244V15.6256C4.84117 16.637 3.64089 18.3484 3.32031 20.3567C4.60179 21.9268 6.25228 23.1841 8.12948 23.9912C6.52493 22.5682 6.0356 20.1517 7.16862 18.1943C7.66045 17.3447 8.38101 16.5527 9.4335 15.9884V15.9871C9.4397 15.9833 9.5294 15.9304 9.53484 15.9272V15.928C10.3619 15.4463 11.2999 15.1345 12.3011 15.04C11.5888 14.7856 10.8218 14.6464 10.022 14.6464Z" fill="#096B82"/>
<path d="M10.0221 13.4492C8.32744 13.4492 6.95361 14.823 6.95361 16.5177C6.95361 17.6457 7.56266 18.6309 8.46943 19.164L10.04 17.5935L11.5975 19.151C12.4918 18.6148 13.0906 17.6363 13.0906 16.5177C13.0906 14.823 11.7168 13.4492 10.0221 13.4492Z" fill="#096B82"/>
<path d="M10.0221 12.9568C8.32744 12.9568 6.95361 14.3307 6.95361 16.0253C6.95361 17.1533 7.56266 18.1385 8.46943 18.6717L10.04 17.1011L11.5975 18.6586C12.4918 18.1224 13.0906 17.1439 13.0906 16.0253C13.0906 14.3307 11.7168 12.9568 10.0221 12.9568Z" fill="white"/>
<path d="M10.0811 17.0396H10.0026C9.24178 17.0396 8.625 16.4228 8.625 15.662V12.4492H11.4587V15.662C11.4587 16.4228 10.842 17.0396 10.0811 17.0396Z" fill="#FF965A"/>
<path d="M13.8856 7.47836C13.8856 6.18533 13.0561 5.00296 11.7631 5.00296H8.3208C7.84495 5.00296 7.42074 5.16348 7.07422 5.43032V12.3248C7.07422 13.3308 7.70015 14.2324 8.64463 14.5785C9.08029 14.7382 9.55089 14.8253 10.0419 14.8253C12.2635 14.8253 14.0644 13.0244 14.0644 10.8028V9.53286L13.8856 7.47836Z" fill="#FFBE82"/>
<path d="M6.52921 5.97165C6.18636 6.37887 5.97949 6.90432 5.97949 7.47831V10.7629C5.97949 12.5061 7.07609 13.9881 8.61088 14.5661C8.89742 14.674 9.11008 14.291 8.8703 14.1006C7.93331 13.3565 7.33251 12.2074 7.33251 10.918V9.13261C7.33251 8.36789 7.98439 7.76994 8.74703 7.82656C9.1544 7.85683 9.58888 7.87316 10.0403 7.87316C11.6294 7.87316 13.0119 7.67103 13.7303 7.37269V5.97165H6.52921Z" fill="#FF965A"/>
<path d="M14.0906 10.2641H14.0645V7.8732H14.0906C14.597 7.8732 15.0076 8.28377 15.0076 8.7902V9.34715C15.0076 9.85357 14.597 10.2641 14.0906 10.2641Z" fill="#FF965A"/>
<path d="M5.95338 10.2641H5.97953V7.8732H5.95338C5.44695 7.8732 5.03638 8.28377 5.03638 8.7902V9.34715C5.03638 9.85357 5.4469 10.2641 5.95338 10.2641Z" fill="#FF965A"/>
<path d="M8.63898 9.9183C8.45394 9.9183 8.30396 9.76827 8.30396 9.58328V8.66699C8.30396 8.48195 8.45399 8.33197 8.63898 8.33197C8.82402 8.33197 8.974 8.48201 8.974 8.66699V9.58328C8.97405 9.76827 8.82402 9.9183 8.63898 9.9183Z" fill="#FF965A"/>
<path d="M11.3751 9.9183C11.19 9.9183 11.04 9.76827 11.04 9.58328V8.66699C11.04 8.48195 11.1901 8.33197 11.3751 8.33197C11.5601 8.33197 11.7101 8.48201 11.7101 8.66699V9.58328C11.7101 9.76827 11.5601 9.9183 11.3751 9.9183Z" fill="#FF965A"/>
<path d="M8.63898 9.64993C8.45394 9.64993 8.30396 9.4999 8.30396 9.31491V8.39862C8.30396 8.21358 8.45399 8.0636 8.63898 8.0636C8.82402 8.0636 8.974 8.21363 8.974 8.39862V9.31491C8.97405 9.4999 8.82402 9.64993 8.63898 9.64993Z" fill="#373C41"/>
<path d="M11.3751 9.64993C11.19 9.64993 11.04 9.4999 11.04 9.31491V8.39862C11.04 8.21358 11.1901 8.0636 11.3751 8.0636C11.5601 8.0636 11.7101 8.21363 11.7101 8.39862V9.31491C11.7101 9.4999 11.5601 9.64993 11.3751 9.64993Z" fill="#373C41"/>
<path d="M9.08037 7.89563H8.10333C7.9183 7.89563 7.76831 7.74565 7.76831 7.56061C7.76831 7.37557 7.9183 7.22559 8.10333 7.22559H9.08037C9.26541 7.22559 9.41539 7.37557 9.41539 7.56061C9.41539 7.74565 9.26541 7.89563 9.08037 7.89563Z" fill="#783C28"/>
<path d="M11.8721 7.89563H10.8951C10.71 7.89563 10.5601 7.74565 10.5601 7.56061C10.5601 7.37557 10.71 7.22559 10.8951 7.22559H11.8721C12.0572 7.22559 12.2071 7.37557 12.2071 7.56061C12.2071 7.74565 12.0572 7.89563 11.8721 7.89563Z" fill="#783C28"/>
<path d="M11.2754 11.5029H8.80822C8.70585 11.5029 8.62404 11.5923 8.63773 11.6938C8.66388 11.8879 8.72931 12.0695 8.82577 12.2304L10.6654 12.7756C11.0809 12.5716 11.3819 12.1703 11.446 11.6938C11.4596 11.5923 11.3778 11.5029 11.2754 11.5029Z" fill="#CD2846"/>
<path d="M9.49906 10.1252C9.41578 10.4578 9.56713 10.8201 9.85657 10.9292C9.91482 10.9512 9.97715 10.9631 10.0419 10.9631C10.1066 10.9631 10.169 10.9512 10.2272 10.9292C10.5166 10.8201 10.668 10.4578 10.5847 10.1252L10.3086 9.02264C10.2391 8.74506 9.84462 8.74506 9.77512 9.02264L9.49906 10.1252Z" fill="#FF965A"/>
<path d="M12.1048 5.55629C12.2287 5.33131 12.5103 5.24548 12.7425 5.35512C12.7459 5.35675 12.7494 5.35838 12.7528 5.36006C13.0047 5.48058 13.2061 5.67402 13.3403 5.90724H13.6224C13.8665 5.90724 14.0644 5.70938 14.0644 5.46527V4.58012C14.0644 3.57963 13.2533 2.76855 12.2528 2.76855H7.79105C7.49037 2.76896 7.24438 3.01536 7.24438 3.31604V5.39806C7.27455 5.38178 7.30503 5.36576 7.33723 5.35156C7.73041 5.17797 8.139 5.56214 8.00845 5.9716C8.00779 5.97363 8.00713 5.97572 8.00652 5.97775C7.91565 6.26617 8.13172 6.55973 8.43413 6.55973H10.4085C11.8663 6.55973 12.0225 5.70587 12.1048 5.55629Z" fill="#783C28"/>
<path d="M7.32126 4.58012C7.32126 3.57963 8.13234 2.76855 9.13283 2.76855H7.79106C6.79057 2.76855 5.97949 3.57963 5.97949 4.58012V7.49957V7.49968V9.53281C6.27707 9.53281 6.51828 9.2916 6.51828 8.99402V6.61498C6.51828 6.08948 6.81397 5.60518 7.28651 5.37532C7.29811 5.36967 7.30966 5.36418 7.32121 5.35884L7.32126 4.58012Z" fill="#5A2D19"/>
<path d="M13.4413 5.56584C13.3934 5.65172 13.3385 5.73302 13.2786 5.8102C13.4365 6.03848 13.5255 6.31428 13.5255 6.60224V8.99431C13.5255 9.29189 13.7667 9.53309 14.0643 9.53309V7.47859V5.34722C13.8339 5.25065 13.5641 5.34564 13.4413 5.56584Z" fill="#5A2D19"/>
<path d="M9.77596 6.55972C9.47431 6.55972 9.25733 6.26708 9.34778 5.97927C9.34936 5.97419 9.35099 5.9691 9.35267 5.96401C9.48622 5.5511 9.05763 5.17537 8.6641 5.35827C8.6522 5.36382 8.64024 5.36947 8.62829 5.37532C8.34663 5.51233 8.12858 5.74005 7.99772 6.0127C7.93331 6.28926 8.1442 6.55972 8.43419 6.55972H10.4084H9.77596Z" fill="#A55A3C"/>
<path d="M8.43089 9.00772H8.42402C8.35768 9.00772 8.30396 8.95394 8.30396 8.88765V8.50679C8.30396 8.44044 8.35773 8.38672 8.42402 8.38672H8.43089C8.49724 8.38672 8.55096 8.4405 8.55096 8.50679V8.88765C8.55096 8.95394 8.49724 9.00772 8.43089 9.00772Z" fill="white"/>
<path d="M11.1606 9.00772H11.1538C11.0874 9.00772 11.0337 8.95394 11.0337 8.88765V8.50679C11.0337 8.44044 11.0875 8.38672 11.1538 8.38672H11.1606C11.227 8.38672 11.2807 8.4405 11.2807 8.50679V8.88765C11.2807 8.95394 11.2269 9.00772 11.1606 9.00772Z" fill="white"/>
<path d="M8.82593 12.231C9.07349 12.644 9.52533 12.9205 10.0419 12.9205C10.2656 12.9205 10.4772 12.8685 10.6653 12.7761C10.5844 12.2687 10.145 11.8809 9.61482 11.8809C9.30188 11.881 9.02058 12.016 8.82593 12.231Z" fill="#F5415F"/>
<path d="M10.6963 11.8802H9.34781C9.21843 11.8802 9.11353 11.7753 9.11353 11.6459V11.5029H10.9306V11.6459C10.9306 11.7753 10.8257 11.8802 10.6963 11.8802Z" fill="white"/>
<path d="M25.2884 23.9159V14.8604C25.2884 14.3022 24.8359 13.8496 24.2776 13.8496H20.9777L18.4933 14.7444L16.0716 13.8496H13.7212V23.9159H25.2884Z" fill="#ECD833"/>
<path d="M20.6033 13.8467V15.4902C20.6287 15.7985 20.442 16.1279 20.0436 16.1279H16.3936C16.407 16.1872 16.4359 16.2423 16.4785 16.2869L16.7143 16.5337C16.8475 16.6732 17.0702 16.6732 17.2034 16.5337L17.2883 16.4448C17.4215 16.3054 17.6442 16.3054 17.7773 16.4448L17.8624 16.5338C17.9956 16.6732 18.2182 16.6732 18.3514 16.5338L18.4363 16.4448C18.5695 16.3054 18.7921 16.3054 18.9253 16.4448L19.0104 16.5338C19.1436 16.6732 19.3662 16.6732 19.4994 16.5338L19.5846 16.4447C19.7178 16.3053 19.9404 16.3053 20.0736 16.4447L20.1588 16.5339C20.292 16.6732 20.5146 16.6732 20.6478 16.5339L20.8839 16.2869C20.944 16.2239 20.9776 16.1402 20.9776 16.0532V13.8467L20.6033 13.8467Z" fill="#ECC32E"/>
<path d="M20.5877 16.2701C20.637 16.2099 20.6644 16.1344 20.6644 16.0561V13.8496H17.1292V16.2702H20.5877V16.2701Z" fill="white"/>
<path d="M20.4333 16.0336L20.3482 16.1228C20.215 16.2622 19.9923 16.2622 19.8591 16.1228L19.7741 16.0337C19.6409 15.8943 19.4182 15.8943 19.285 16.0337L19.2001 16.1226C19.0669 16.2621 18.8443 16.2621 18.7111 16.1227L18.6261 16.0337C18.4929 15.8943 18.2703 15.8943 18.1371 16.0337L18.0521 16.1226C17.9189 16.262 17.6963 16.262 17.5631 16.1226L17.4977 16.0542C17.3282 15.8767 17.2336 15.6408 17.2336 15.3954V13.8496H16.0718V16.0561C16.0718 16.1431 16.1053 16.2268 16.1654 16.2898L16.4013 16.5366C16.5344 16.676 16.7571 16.676 16.8903 16.5366L16.9752 16.4477C17.1084 16.3083 17.3311 16.3082 17.4643 16.4477L17.5493 16.5367C17.6825 16.6761 17.9051 16.6761 18.0383 16.5366L18.1232 16.4477C18.2564 16.3083 18.4791 16.3083 18.6123 16.4477L18.6973 16.5367C18.8305 16.6761 19.0531 16.6761 19.1863 16.5367L19.2715 16.4476C19.4047 16.3082 19.6273 16.3082 19.7605 16.4476L19.8458 16.5368C19.979 16.6761 20.2015 16.6761 20.3347 16.5368L20.5708 16.2898C20.6309 16.2269 20.6645 16.1432 20.6645 16.0561V15.9297C20.58 15.9331 20.4966 15.9675 20.4333 16.0336Z" fill="#D0FBFD"/>
<path d="M17.305 21.5717H17.4664V23.1271C17.4664 23.1756 17.5058 23.2149 17.5543 23.2149H17.9306C17.9791 23.2149 18.0184 23.1756 18.0184 23.1271V21.5717H18.2259C18.3179 21.5717 18.367 21.4633 18.3063 21.3942L17.8458 20.8694C17.8032 20.8209 17.7276 20.8209 17.685 20.8694L17.2245 21.3942C17.1639 21.4633 17.213 21.5717 17.305 21.5717Z" fill="#ECC32E"/>
<path d="M18.6006 21.5717H18.7621V23.1271C18.7621 23.1756 18.8014 23.2149 18.8499 23.2149H19.2262C19.2747 23.2149 19.3141 23.1756 19.3141 23.1271V21.5717H19.5215C19.6135 21.5717 19.6626 21.4633 19.6019 21.3942L19.1414 20.8694C19.0989 20.8209 19.0233 20.8209 18.9806 20.8694L18.5201 21.3942C18.4595 21.4633 18.5086 21.5717 18.6006 21.5717Z" fill="#ECC32E"/>
<path d="M18.0973 21.3942L17.6368 20.8694C17.5943 20.8209 17.5187 20.8209 17.476 20.8694L17.0155 21.3942C16.9549 21.4633 17.004 21.5717 17.0959 21.5717H17.2574V23.1271C17.2574 23.1756 17.2967 23.2149 17.3453 23.2149H17.7215C17.7701 23.2149 17.8094 23.1756 17.8094 23.1271V21.5717H18.0169C18.1089 21.5717 18.158 21.4633 18.0973 21.3942Z" fill="#9D66D5"/>
<path d="M19.393 21.3942L18.9325 20.8694C18.8899 20.8209 18.8143 20.8209 18.7717 20.8694L18.3112 21.3942C18.2505 21.4633 18.2996 21.5717 18.3916 21.5717H18.5531V23.1271C18.5531 23.1756 18.5924 23.2149 18.6409 23.2149H19.0172C19.0657 23.2149 19.1051 23.1756 19.1051 23.1271V21.5717H19.3125C19.4045 21.5717 19.4536 21.4633 19.393 21.3942Z" fill="#9D66D5"/>
<path d="M16.9411 17.195V20.4514H17.3909C17.5977 20.4514 17.7654 20.2837 17.7654 20.0769V17.5209C17.7654 17.3141 17.5977 17.1465 17.3909 17.1465H16.9387C16.9398 17.1624 16.9411 17.1783 16.9411 17.195Z" fill="#ECC32E"/>
<path d="M24.4946 23.6905C24.3901 23.6905 24.2865 23.6503 24.2197 23.57C24.1856 23.5291 24.1329 23.5041 24.0773 23.5041H23.7816V22.9271C23.7816 22.8018 23.8466 22.6879 23.9493 22.6163C24.1042 22.5083 24.2055 22.3288 24.2055 22.1257V20.9861C24.2055 20.9014 24.1369 20.8327 24.0521 20.8327H23.9606L24.0376 21.2382C24.0421 21.2618 24.0384 21.2863 24.0272 21.3075L23.847 21.6479C23.8407 21.6596 23.8368 21.6725 23.8353 21.6857L23.8137 21.8799C23.8077 21.9345 23.7332 21.9458 23.7111 21.8954L23.633 21.7164C23.6166 21.6788 23.6147 21.6365 23.6276 21.5976L23.7359 21.2727C23.7422 21.254 23.743 21.2338 23.7384 21.2145L23.6468 20.8327H23.1629C23.0782 20.8327 23.0095 20.9014 23.0095 20.9861V22.1257C23.0095 22.3954 23.1881 22.6232 23.4334 22.6977V23.504H23.1377C23.0823 23.504 23.0296 23.5289 22.9954 23.5698C22.9284 23.6502 22.8245 23.6905 22.7198 23.6905H21.9835C21.733 23.6905 21.5286 23.486 21.5332 23.2356C21.5333 23.2314 21.5334 23.2272 21.5334 23.2229V22.578C21.5334 22.3191 21.7433 22.1092 22.0022 22.1092H22.3945C22.5346 22.1092 22.637 21.9795 22.6079 21.8424C22.4852 21.2655 21.9728 20.8327 21.3593 20.8327C20.7458 20.8327 20.2334 21.2655 20.1108 21.8424C20.0816 21.9795 20.184 22.1092 20.3242 22.1092H21.1852V23.2153C21.1852 23.3269 21.1052 23.4266 20.9944 23.4409C20.8604 23.4581 20.7457 23.3537 20.7457 23.2229V23.0301C20.7457 22.9392 20.6793 22.858 20.5887 22.8494C20.4849 22.8394 20.3975 22.9208 20.3975 23.0226V23.2229C20.3975 23.2429 20.3985 23.2626 20.4006 23.2821C20.4186 23.4556 20.3123 23.6229 20.1455 23.674C20.0023 23.7179 19.8533 23.6712 19.76 23.5639C19.7278 23.5267 19.6802 23.504 19.6286 23.504H17.1977C17.1015 23.504 17.0236 23.582 17.0236 23.6781C17.0236 23.6824 17.0246 23.6863 17.0248 23.6905H14.5087C14.1373 23.6905 13.8361 23.3893 13.8361 23.0179V21.2479C13.8361 20.8079 14.1928 20.4512 14.6328 20.4512H14.6487V17.1617C14.6487 17.1564 14.6494 17.1515 14.6495 17.1462H14.6328C14.1928 17.1462 13.8361 16.7895 13.8361 16.3496V13.8495H12.1201C11.7486 13.8495 11.4475 14.1506 11.4475 14.5221V24.2881C11.4475 24.6596 11.7486 24.9607 12.1201 24.9607H24.6158C24.9873 24.9607 25.2884 24.6596 25.2884 24.2881V23.6906H24.4946V23.6905Z" fill="#ECC32E"/>
<path d="M22.3991 21.8418C22.2764 21.2648 21.764 20.832 21.1505 20.832C20.537 20.832 20.0246 21.2648 19.902 21.8418C19.8728 21.9788 19.9752 22.1085 20.1153 22.1085H20.9764V23.2223C20.9764 23.3435 20.8778 23.4421 20.7566 23.4421C20.6354 23.4421 20.5368 23.3435 20.5368 23.2223V23.022C20.5368 22.9258 20.4589 22.8479 20.3627 22.8479C20.2666 22.8479 20.1886 22.9258 20.1886 23.022V23.2223C20.1886 23.5355 20.4434 23.7903 20.7566 23.7903C21.0698 23.7903 21.3246 23.5355 21.3246 23.2223V22.1085H22.1857C22.3258 22.1086 22.4282 21.9789 22.3991 21.8418Z" fill="#ABABFF"/>
<path d="M19.4197 23.8521H16.9888C16.8926 23.8521 16.8147 23.7741 16.8147 23.678C16.8147 23.5818 16.8926 23.5039 16.9888 23.5039H19.4197C19.5159 23.5039 19.5938 23.5818 19.5938 23.678C19.5938 23.7741 19.5158 23.8521 19.4197 23.8521Z" fill="#9D66D5"/>
<path d="M23.8684 23.5034H23.5728V22.6971C23.8181 22.6225 23.9967 22.3947 23.9967 22.125V20.9854C23.9967 20.9007 23.928 20.832 23.8433 20.832H23.7518L23.8288 21.2375C23.8332 21.2611 23.8296 21.2856 23.8183 21.3068L23.6381 21.6472C23.6319 21.6589 23.6279 21.6718 23.6265 21.685L23.6049 21.8792C23.5988 21.9338 23.5243 21.9451 23.5023 21.8947L23.4241 21.7157C23.4077 21.6782 23.4058 21.6358 23.4188 21.597L23.5271 21.2721C23.5333 21.2533 23.5342 21.2331 23.5295 21.2139L23.4379 20.8321H22.954C22.8693 20.8321 22.8006 20.9008 22.8006 20.9855V22.1251C22.8006 22.3948 22.9792 22.6226 23.2245 22.6971V23.5035H22.9289C22.838 23.5035 22.7568 23.5699 22.7481 23.6605C22.7382 23.7643 22.8196 23.8517 22.9214 23.8517H23.8759C23.9777 23.8517 24.0591 23.7643 24.0492 23.6605C24.0406 23.5699 23.9594 23.5034 23.8684 23.5034Z" fill="#8659B9"/>
<path d="M17.4283 19.9659C17.4318 19.9406 17.4342 19.9149 17.4342 19.8887V17.7092C17.4342 17.3984 17.1823 17.1465 16.8715 17.1465H13.688V19.9659H17.4283Z" fill="#9BD069"/>
<path d="M14.1871 19.7876C13.9803 19.7876 13.8127 19.62 13.8127 19.4132C13.8127 19.197 13.988 19.0216 14.2042 19.0216H15.8355C15.9264 19.0216 16.0076 18.9552 16.0163 18.8646C16.0262 18.7608 15.9448 18.6734 15.843 18.6734H13.9948C13.8942 18.6734 13.8127 18.5919 13.8127 18.4914C13.8127 18.3908 13.8942 18.3093 13.9948 18.3093H14.8545C14.9454 18.3093 15.0266 18.2428 15.0353 18.1523C15.0452 18.0484 14.9638 17.9611 14.862 17.9611H13.9948C13.8942 17.9611 13.8127 17.8796 13.8127 17.779V17.1465H12.6642C12.4574 17.1465 12.2898 17.3141 12.2898 17.5209V20.0769C12.2898 20.2837 12.4574 20.4514 12.6642 20.4514H17.0597C17.2665 20.4514 17.4342 20.2838 17.4342 20.077V19.7876H14.1871Z" fill="#69B76B"/>
<path d="M14.2572 6.50658H5.82349V4.41621C5.82349 3.22738 6.78719 2.26367 7.97603 2.26367H12.1047C13.2935 2.26367 14.2572 3.22738 14.2572 4.41621V6.50658Z" fill="#3342AA"/>
<path d="M11.992 6.55898H8.08862V4.16127C8.08862 3.11326 8.93821 2.26367 9.98622 2.26367H10.0944C11.1424 2.26367 11.992 3.11326 11.992 4.16127V6.55898Z" fill="white"/>
<path d="M7.02209 5.36612C6.36013 5.36612 5.82349 5.90277 5.82349 6.56472H5.82649C5.88917 7.08728 7.75105 7.50655 10.0403 7.50655C12.3296 7.50655 14.1915 7.08728 14.2542 6.56472H14.2572C14.2572 5.90277 13.7206 5.36612 13.0586 5.36612H7.02209Z" fill="#2B3890"/>
<path d="M10.0403 2.52979C10.3855 2.52979 10.6653 2.39567 10.6653 2.23023C10.6653 2.06478 10.3855 1.93066 10.0403 1.93066C9.69511 1.93066 9.41528 2.06478 9.41528 2.23023C9.41528 2.39567 9.69511 2.52979 10.0403 2.52979Z" fill="#2B3890"/>
<path d="M15.7065 25.9183C15.48 25.9183 15.2964 25.7348 15.2964 25.5083V24.3601C15.2964 24.1336 15.48 23.95 15.7065 23.95C15.9329 23.95 16.1165 24.1336 16.1165 24.3601V25.5083C16.1165 25.7348 15.9329 25.9183 15.7065 25.9183Z" fill="#FFBE82"/>
<path d="M16.5265 26.0004C16.2547 26.0004 16.0344 25.7801 16.0344 25.5083V24.3601C16.0344 24.0883 16.2547 23.868 16.5265 23.868C16.7983 23.868 17.0186 24.0883 17.0186 24.3601V25.5083C17.0186 25.7801 16.7983 26.0004 16.5265 26.0004Z" fill="#FFBE82"/>
<path d="M17.4562 26.0004C17.1844 26.0004 16.9641 25.7801 16.9641 25.5083V24.3601C16.9641 24.0883 17.1844 23.868 17.4562 23.868C17.728 23.868 17.9483 24.0883 17.9483 24.3601V25.5083C17.9483 25.7801 17.728 26.0004 17.4562 26.0004Z" fill="#FFBE82"/>
<path d="M18.3856 26.0004C18.1139 26.0004 17.8936 25.7801 17.8936 25.5083V24.3601C17.8936 24.0883 18.1139 23.868 18.3856 23.868C18.6574 23.868 18.8777 24.0883 18.8777 24.3601V25.5083C18.8778 25.7801 18.6574 26.0004 18.3856 26.0004Z" fill="#FFBE82"/>
<path d="M18.3856 25.2157C18.1702 25.2157 17.9875 25.077 17.9209 24.8842C17.8542 25.077 17.6716 25.2157 17.4561 25.2157C17.2406 25.2157 17.058 25.077 16.9913 24.8842C16.9247 25.077 16.742 25.2157 16.5266 25.2157C16.3209 25.2157 16.1449 25.0894 16.0713 24.9101C16.0034 25.0428 15.8657 25.1337 15.7065 25.1337C15.4799 25.1337 15.2964 24.9501 15.2964 24.7236V25.5086C15.2964 25.7351 15.48 25.9186 15.7065 25.9186C15.8657 25.9186 16.0034 25.8277 16.0713 25.6951C16.1449 25.8743 16.3209 26.0006 16.5266 26.0006C16.742 26.0006 16.9247 25.8619 16.9913 25.6691C17.058 25.8619 17.2406 26.0006 17.4561 26.0006C17.6716 26.0006 17.8542 25.8619 17.9209 25.6691C17.9875 25.8619 18.1702 26.0006 18.3856 26.0006C18.6574 26.0006 18.8777 25.7803 18.8777 25.5086V24.7236C18.8777 24.9954 18.6574 25.2157 18.3856 25.2157Z" fill="#FF965A"/>
</g>
<defs>
<clipPath id="clip0_1989_16924">
<rect width="26" height="26" fill="white"/>
</clipPath>
</defs>
</svg>
