<svg width="26" height="26" viewBox="0 0 26 26" fill="none" xmlns="http://www.w3.org/2000/svg">
<g clip-path="url(#clip0_1989_16783)">
<path d="M12.9785 1.11719C6.1073 1.11719 0.537109 6.68738 0.537109 13.5586C0.537109 16.6228 1.64556 19.4277 3.48242 21.5958L7.49876 24.7305C9.15215 25.543 11.0119 26 12.9785 26C14.8206 26 16.569 25.5992 18.1418 24.8808C16.746 24.1536 15.7901 22.6938 15.7901 21.0141C15.7901 18.6112 17.745 16.6562 20.148 16.6562C21.8878 16.6562 23.3922 17.6815 24.0903 19.1593C24.9404 17.4759 25.4199 15.5733 25.4199 13.5586C25.4199 6.68738 19.8497 1.11719 12.9785 1.11719Z" fill="#FFBD86"/>
<path d="M15.7899 21.0141C15.7899 18.6112 17.7449 16.6562 20.1478 16.6562C21.0029 16.6562 21.8007 16.9048 22.4744 17.332V1.32031C22.4744 1.03985 22.247 0.8125 21.9666 0.8125H17.0408V2.23438C17.0408 2.3464 16.9497 2.4375 16.8376 2.4375H9.1189C9.00687 2.4375 8.91577 2.3464 8.91577 2.23438V0.8125H3.98999C3.70953 0.8125 3.48218 1.03985 3.48218 1.32031V21.5958C4.58545 22.898 5.95142 23.9701 7.49857 24.7305H17.8746C16.6252 23.9634 15.7899 22.5846 15.7899 21.0141Z" fill="#22B27F"/>
<path d="M6.14463 1.32031C6.14463 1.03985 6.37198 0.8125 6.65244 0.8125H3.99023C3.70977 0.8125 3.48242 1.03985 3.48242 1.32031V21.5958C4.2513 22.5034 5.1481 23.2987 6.14463 23.9551V1.32031Z" fill="#09A76D"/>
<path d="M15.7899 21.0141C15.7899 18.6112 17.7449 16.6562 20.1478 16.6562C20.4222 16.6562 20.6904 16.683 20.9509 16.7317V1.98047C20.9509 1.89632 20.8827 1.82812 20.7986 1.82812H17.0408V2.23438C17.0408 2.3464 16.9497 2.4375 16.8376 2.4375H9.1189C9.00687 2.4375 8.91577 2.3464 8.91577 2.23438V1.82812H5.15796C5.07381 1.82812 5.00562 1.89632 5.00562 1.98047V22.5469C5.00562 22.631 5.07381 22.6992 5.15796 22.6992H16.1291C15.9109 22.1805 15.7899 21.6112 15.7899 21.0141Z" fill="white"/>
<path d="M7.05869 22.5469V1.98047C7.05869 1.89632 7.12689 1.82812 7.21104 1.82812H5.1582C5.07406 1.82812 5.00586 1.89632 5.00586 1.98047V22.5469C5.00586 22.631 5.07406 22.6992 5.1582 22.6992H7.21104C7.12689 22.6992 7.05869 22.631 7.05869 22.5469Z" fill="#F8F6F6"/>
<path d="M15.543 2.4375V2.84883H14.4922C14.2097 2.84883 13.965 3.03215 13.8834 3.30495C13.7647 3.70114 13.3926 3.97785 12.9785 3.97785C12.5644 3.97785 12.1923 3.70114 12.0736 3.305C11.992 3.03215 11.7473 2.84883 11.4649 2.84883H10.4141V2.4375H9.65234V2.97578C9.65234 3.32582 9.93707 3.61055 10.2871 3.61055H11.3726C11.6137 4.27969 12.2612 4.73957 12.9785 4.73957C13.6958 4.73957 14.3433 4.27969 14.5844 3.61055H15.6699C16.02 3.61055 16.3047 3.32582 16.3047 2.97578V2.4375H15.543Z" fill="#9C9C9C"/>
<path d="M8.9732 8.77842C9.84615 8.77842 10.5538 8.07076 10.5538 7.1978C10.5538 6.32485 9.84615 5.61719 8.9732 5.61719C8.10024 5.61719 7.39258 6.32485 7.39258 7.1978C7.39258 8.07076 8.10024 8.77842 8.9732 8.77842Z" fill="#26A6FE"/>
<path d="M8.42979 7.1978C8.42979 6.50657 8.87366 5.91939 9.49177 5.70468C9.32927 5.64827 9.15489 5.61719 8.9732 5.61719C8.10027 5.61719 7.39258 6.32482 7.39258 7.1978C7.39258 8.07073 8.10022 8.77842 8.9732 8.77842C9.15489 8.77842 9.32927 8.74734 9.49177 8.69093C8.87366 8.47622 8.42979 7.88899 8.42979 7.1978Z" fill="#0593FC"/>
<path d="M8.86614 8.0517C8.76869 8.0517 8.67119 8.01453 8.59684 7.94018L7.94334 7.28673C7.7946 7.13799 7.7946 6.89683 7.94334 6.74815C8.09208 6.59936 8.33324 6.59941 8.48193 6.7481L8.86609 7.13226L9.46404 6.53431C9.61277 6.38562 9.85393 6.38562 10.0026 6.53431C10.1514 6.6831 10.1514 6.92421 10.0026 7.07294L9.13538 7.94018C9.06109 8.01453 8.96364 8.0517 8.86614 8.0517Z" fill="white"/>
<path d="M18.5645 6.81641H11.9121C11.7018 6.81641 11.5312 6.64593 11.5312 6.43555C11.5312 6.22516 11.7018 6.05469 11.9121 6.05469H18.5645C18.7748 6.05469 18.9453 6.22516 18.9453 6.43555C18.9453 6.64593 18.7748 6.81641 18.5645 6.81641Z" fill="#9C9C9C"/>
<path d="M16.3809 8.33978H11.9121C11.7018 8.33978 11.5312 8.16931 11.5312 7.95892C11.5312 7.74854 11.7018 7.57806 11.9121 7.57806H16.3809C16.5912 7.57806 16.7617 7.74854 16.7617 7.95892C16.7617 8.16931 16.5912 8.33978 16.3809 8.33978Z" fill="#9C9C9C"/>
<path d="M8.9732 12.8097C9.84615 12.8097 10.5538 12.102 10.5538 11.2291C10.5538 10.3561 9.84615 9.64844 8.9732 9.64844C8.10024 9.64844 7.39258 10.3561 7.39258 11.2291C7.39258 12.102 8.10024 12.8097 8.9732 12.8097Z" fill="#26A6FE"/>
<path d="M8.42979 11.2291C8.42979 10.5378 8.87366 9.95064 9.49177 9.73593C9.32927 9.67952 9.15489 9.64844 8.9732 9.64844C8.10027 9.64844 7.39258 10.3561 7.39258 11.2291C7.39258 12.102 8.10022 12.8097 8.9732 12.8097C9.15489 12.8097 9.32927 12.7786 9.49177 12.7222C8.87366 12.5075 8.42979 11.9202 8.42979 11.2291Z" fill="#0593FC"/>
<path d="M8.86614 12.083C8.76869 12.083 8.67124 12.0459 8.59684 11.9715L7.94334 11.3181C7.7946 11.1693 7.7946 10.9282 7.94334 10.7795C8.09208 10.6307 8.33324 10.6307 8.48193 10.7794L8.86609 11.1636L9.46404 10.5657C9.61277 10.417 9.85393 10.417 10.0026 10.5657C10.1514 10.7145 10.1514 10.9556 10.0026 11.1043L9.13538 11.9715C9.06109 12.0459 8.96359 12.083 8.86614 12.083Z" fill="white"/>
<path d="M18.5645 10.8486H11.9121C11.7018 10.8486 11.5312 10.6782 11.5312 10.4678C11.5312 10.2574 11.7018 10.0869 11.9121 10.0869H18.5645C18.7748 10.0869 18.9453 10.2574 18.9453 10.4678C18.9453 10.6782 18.7748 10.8486 18.5645 10.8486Z" fill="#9C9C9C"/>
<path d="M16.3809 12.3721H11.9121C11.7018 12.3721 11.5312 12.2017 11.5312 11.9913C11.5312 11.7809 11.7018 11.6104 11.9121 11.6104H16.3809C16.5912 11.6104 16.7617 11.7809 16.7617 11.9913C16.7617 12.2017 16.5912 12.3721 16.3809 12.3721Z" fill="#9C9C9C"/>
<path d="M8.9732 16.8409C9.84615 16.8409 10.5538 16.1333 10.5538 15.2603C10.5538 14.3874 9.84615 13.6797 8.9732 13.6797C8.10024 13.6797 7.39258 14.3874 7.39258 15.2603C7.39258 16.1333 8.10024 16.8409 8.9732 16.8409Z" fill="#26A6FE"/>
<path d="M8.42979 15.2603C8.42979 14.5691 8.87366 13.9819 9.49177 13.7672C9.32927 13.7108 9.15489 13.6797 8.9732 13.6797C8.10027 13.6797 7.39258 14.3873 7.39258 15.2603C7.39258 16.1332 8.10022 16.8409 8.9732 16.8409C9.15489 16.8409 9.32927 16.8098 9.49177 16.7534C8.87366 16.5387 8.42979 15.9515 8.42979 15.2603Z" fill="#0593FC"/>
<path d="M8.86614 16.1144C8.76869 16.1144 8.67124 16.0772 8.59684 16.0029L7.94334 15.3494C7.7946 15.2007 7.7946 14.9595 7.94334 14.8108C8.09208 14.662 8.33324 14.6621 8.48193 14.8108L8.86609 15.1949L9.46404 14.597C9.61277 14.4483 9.85393 14.4483 10.0026 14.5971C10.1514 14.7458 10.1514 14.987 10.0026 15.1357L9.13538 16.0029C9.06109 16.0772 8.96359 16.1144 8.86614 16.1144Z" fill="white"/>
<path d="M17.7747 14.1183H11.9121C11.7018 14.1183 11.5312 14.2888 11.5312 14.4992C11.5312 14.7096 11.7018 14.88 11.9121 14.88H17.6188L17.7747 14.1183Z" fill="#9C9C9C"/>
<path d="M17.8866 13.7648L17.7939 13.7699L17.2966 16.2001C17.2799 16.2817 17.3767 16.3376 17.439 16.2823L19.2949 14.6365L19.2546 14.5546L17.8866 13.7648Z" fill="#FFE5C2"/>
<path d="M18.4603 14.096L17.8866 13.7647L17.7939 13.7699L17.2966 16.2001C17.2799 16.2817 17.3767 16.3375 17.439 16.2823L18.1401 15.6606L18.4603 14.096Z" fill="#FED2A4"/>
<path d="M14.8574 16.4035H11.9121C11.7018 16.4035 11.5312 16.233 11.5312 16.0226C11.5312 15.8122 11.7018 15.6418 11.9121 15.6418H14.8574C15.0678 15.6418 15.2383 15.8122 15.2383 16.0226C15.2383 16.233 15.0678 16.4035 14.8574 16.4035Z" fill="#9C9C9C"/>
<path d="M8.9732 20.8714C9.84615 20.8714 10.5538 20.1637 10.5538 19.2908C10.5538 18.4178 9.84615 17.7101 8.9732 17.7101C8.10024 17.7101 7.39258 18.4178 7.39258 19.2908C7.39258 20.1637 8.10024 20.8714 8.9732 20.8714Z" fill="#D8ECFE"/>
<path d="M8.42979 19.2908C8.42979 18.5995 8.87366 18.0123 9.49177 17.7976C9.32927 17.7412 9.15489 17.7101 8.9732 17.7101C8.10027 17.7101 7.39258 18.4178 7.39258 19.2908C7.39258 20.1637 8.10022 20.8713 8.9732 20.8713C9.15489 20.8713 9.32927 20.8403 9.49177 20.7838C8.87366 20.5692 8.42979 19.9819 8.42979 19.2908Z" fill="#B3DAFE"/>
<path d="M16.8693 18.1486H11.9121C11.7018 18.1486 11.5312 18.3191 11.5312 18.5295C11.5312 18.7399 11.7018 18.9103 11.9121 18.9103H16.3334C16.4848 18.637 16.6649 18.3821 16.8693 18.1486Z" fill="#9C9C9C"/>
<path d="M14.8574 20.4338H11.9121C11.7018 20.4338 11.5312 20.2633 11.5312 20.0529C11.5312 19.8425 11.7018 19.6721 11.9121 19.6721H14.8574C15.0678 19.6721 15.2383 19.8425 15.2383 20.0529C15.2383 20.2633 15.0678 20.4338 14.8574 20.4338Z" fill="#9C9C9C"/>
<path d="M16.8379 2.48828H9.11914C8.97893 2.48828 8.86523 2.37458 8.86523 2.23438V0.253906C8.86523 0.113699 8.97893 0 9.11914 0H16.8379C16.9781 0 17.0918 0.113699 17.0918 0.253906V2.23438C17.0918 2.37458 16.9781 2.48828 16.8379 2.48828Z" fill="#0182FC"/>
<path d="M11.6798 1.47266C11.5396 1.47266 11.4259 1.35896 11.4259 1.21875V0H9.11914C8.97893 0 8.86523 0.113699 8.86523 0.253906V2.23438C8.86523 2.37458 8.97893 2.48828 9.11914 2.48828H16.8379C16.9781 2.48828 17.0918 2.37458 17.0918 2.23438V1.47266H11.6798Z" fill="#0172FB"/>
<path d="M25.2463 3.46122L24.4958 3.02791C24.2885 2.90827 24.0235 2.97926 23.9039 3.1865L22.9072 4.9127L22.9531 4.98923L24.3041 5.76918L24.4083 5.77934L25.4049 4.05313C25.5246 3.84589 25.4536 3.58086 25.2463 3.46122Z" fill="#9C9C9C"/>
<path d="M18.2358 15.5752L17.5103 15.1563L17.2968 16.1993C17.2801 16.2809 17.3769 16.3367 17.4392 16.2815L18.2358 15.5752Z" fill="#5A5A5A"/>
<path d="M22.9067 4.91318L24.4077 5.77981L19.2946 14.6358L17.7936 13.7691L22.9067 4.91318Z" fill="#FAC600"/>
<path d="M24.2388 4.14084C24.3584 3.9336 24.6234 3.86256 24.8307 3.98225L25.2921 4.24865L25.4049 4.05319C25.5245 3.84595 25.4536 3.58093 25.2463 3.46128L24.4958 3.02797C24.2885 2.90833 24.0235 2.97932 23.9039 3.18656L22.9072 4.91276L22.9531 4.98929L23.55 5.33384L24.2388 4.14084Z" fill="#838383"/>
<path d="M23.2419 5.86745L24.0786 6.35048L24.4081 5.77975L22.9071 4.91312L17.7939 13.7694L18.4583 14.1529L23.2419 5.86745Z" fill="#E8B800"/>
<path d="M20.1479 25.4227C22.5827 25.4227 24.5565 23.4489 24.5565 21.0141C24.5565 18.5793 22.5827 16.6055 20.1479 16.6055C17.7131 16.6055 15.7393 18.5793 15.7393 21.0141C15.7393 23.4489 17.7131 25.4227 20.1479 25.4227Z" fill="#0182FC"/>
<path d="M17.7226 21.0141C17.7226 18.9203 19.1823 17.1674 21.1396 16.7175C20.8208 16.6442 20.4889 16.6055 20.1479 16.6055C17.7131 16.6055 15.7393 18.5793 15.7393 21.0141C15.7393 23.4489 17.7131 25.4227 20.1479 25.4227C20.4889 25.4227 20.8208 25.384 21.1396 25.3107C19.1823 24.8608 17.7226 23.108 17.7226 21.0141Z" fill="#0172FB"/>
<path d="M20.0216 22.8241C19.8081 22.8241 19.5946 22.7427 19.4316 22.5799L18 21.1483C17.6742 20.8225 17.6742 20.2942 18 19.9685C18.3258 19.6425 18.8541 19.6426 19.1799 19.9684L20.0214 20.8099L21.3314 19.5001C21.6572 19.1744 22.1855 19.1743 22.5112 19.5002C22.8371 19.8261 22.8371 20.3544 22.5112 20.6801L20.6114 22.5799C20.4486 22.7427 20.235 22.8241 20.0216 22.8241Z" fill="#0172FB"/>
<path d="M20.2659 22.5683C20.0525 22.5683 19.839 22.4869 19.676 22.3241L18.2444 20.8925C17.9185 20.5667 17.9185 20.0384 18.2444 19.7127C18.5702 19.3867 19.0985 19.3868 19.4243 19.7126L20.2658 20.5541L21.5757 19.2443C21.9016 18.9186 22.4299 18.9185 22.7556 19.2444C23.0815 19.5703 23.0815 20.0986 22.7556 20.4243L20.8558 22.3241C20.693 22.4869 20.4794 22.5683 20.2659 22.5683Z" fill="white"/>
</g>
<defs>
<clipPath id="clip0_1989_16783">
<rect width="26" height="26" fill="white"/>
</clipPath>
</defs>
</svg>
