<svg width="26" height="26" viewBox="0 0 26 26" fill="none" xmlns="http://www.w3.org/2000/svg">
<g clip-path="url(#clip0_1989_16863)">
<path d="M13 1.11719C6.12879 1.11719 0.558594 6.68738 0.558594 13.5586C0.558594 15.3199 0.925184 16.9953 1.58539 18.5136H1.63617V13.1016C1.63617 12.9895 1.72727 12.8984 1.8393 12.8984H9.55805C9.67007 12.8984 9.76117 12.9895 9.76117 13.1016V21.0125H22.8003L22.9994 20.9617C24.5336 18.893 25.4414 16.3319 25.4414 13.5586C25.4414 6.68738 19.8712 1.11719 13 1.11719Z" fill="#D8ECFE"/>
<path d="M15.6406 17.1074V18.6531H17.9241C18.1075 17.9512 18.6154 17.3793 19.2771 17.1074H15.6406Z" fill="#096B82"/>
<path d="M24.8109 17.1074H21.0178C21.6796 17.3793 22.1875 17.9511 22.3709 18.6531H24.4258C24.7063 18.6531 24.9336 18.4257 24.9336 18.1453V17.1582L24.8109 17.1074Z" fill="#096B82"/>
<path d="M23.9687 14.7007H24.895L24.9336 14.6499V13.8729C24.9336 13.7484 24.9149 13.6254 24.8794 13.5074L24.8081 13.4566H18.1831C18.0711 13.4566 17.98 13.3655 17.98 13.2534V10.3589C17.98 10.2469 18.0711 10.1558 18.1831 10.1558H22.7693L22.7973 10.105L22.3914 9.45851C22.2985 9.31054 22.1361 9.2207 21.9614 9.2207H16.5815V17.1575H19.162C19.4608 17.0151 19.7949 16.935 20.1475 16.935C20.5 16.935 20.8341 17.015 21.1329 17.1575H24.9336V16.4273L24.9063 16.3765H23.9687C23.8567 16.3765 23.7656 16.2854 23.7656 16.1734V14.9038C23.7656 14.7918 23.8567 14.7007 23.9687 14.7007Z" fill="#2490A9"/>
<path d="M19.1987 10.1782L19.1479 10.1055H18.1831C18.0429 10.1055 17.9292 10.2192 17.9292 10.3594V13.2539C17.9292 13.3941 18.0429 13.5078 18.1831 13.5078H19.1479L19.1987 13.4181V10.1782Z" fill="#096B82"/>
<path d="M13.8551 4.72266H2.84741C2.56695 4.72266 2.3396 4.95 2.3396 5.23047V12.8984H9.55805C9.67008 12.8984 9.76118 12.9895 9.76118 13.1016V15.2455H15.4375C15.5495 15.2455 15.6406 15.3366 15.6406 15.4487V17.158H16.6323V7.59606C15.2496 7.23684 14.1686 6.12305 13.8551 4.72266Z" fill="#FED402"/>
<path d="M4.46876 12.8477V5.23047C4.46876 4.95 4.6961 4.72266 4.97657 4.72266H2.84741C2.56695 4.72266 2.3396 4.95 2.3396 5.23047V12.8477H4.46876Z" fill="#FAC600"/>
<path d="M13.4568 11.0642H5.51465C5.23418 11.0642 5.00684 10.8369 5.00684 10.5564V8.17578C5.00684 7.89532 5.23418 7.66797 5.51465 7.66797H13.4568C13.7373 7.66797 13.9646 7.89532 13.9646 8.17578V10.5564C13.9646 10.8369 13.7373 11.0642 13.4568 11.0642Z" fill="white"/>
<path d="M6.60132 10.5564V8.17578C6.60132 7.89532 6.82866 7.66797 7.10913 7.66797H5.51465C5.23418 7.66797 5.00684 7.89532 5.00684 8.17578V10.5564C5.00684 10.8369 5.23418 11.0642 5.51465 11.0642H7.10913C6.82866 11.0642 6.60132 10.8369 6.60132 10.5564Z" fill="#F3F0FF"/>
<path d="M18.6151 21.0125H21.6798C22.1794 20.5818 22.4961 19.9448 22.4961 19.2334C22.4961 17.9363 21.4446 16.8848 20.1475 16.8848C18.8504 16.8848 17.7988 17.9363 17.7988 19.2334C17.7988 19.9448 18.1155 20.5818 18.6151 21.0125Z" fill="#9182B0"/>
<path d="M18.5576 20.9617H19.3957C18.9292 20.5327 18.6367 19.9174 18.6367 19.2334C18.6367 18.0794 19.4693 17.1205 20.5664 16.9228C20.4304 16.8983 20.2905 16.8848 20.1475 16.8848C18.8504 16.8848 17.7988 17.9363 17.7988 19.2334C17.7988 19.9172 18.0912 20.5325 18.5576 20.9617Z" fill="#7A6D98"/>
<path d="M20.1475 20.4902C20.8416 20.4902 21.4043 19.9275 21.4043 19.2334C21.4043 18.5393 20.8416 17.9766 20.1475 17.9766C19.4533 17.9766 18.8906 18.5393 18.8906 19.2334C18.8906 19.9275 19.4533 20.4902 20.1475 20.4902Z" fill="#CFCAE4"/>
<path d="M20.1475 19.9062C20.5191 19.9062 20.8203 19.605 20.8203 19.2334C20.8203 18.8618 20.5191 18.5605 20.1475 18.5605C19.7759 18.5605 19.4746 18.8618 19.4746 19.2334C19.4746 19.605 19.7759 19.9062 20.1475 19.9062Z" fill="white"/>
<path d="M20.0078 19.2334C20.0078 18.9571 20.1753 18.7193 20.4141 18.6159C20.3323 18.5805 20.2422 18.5605 20.1475 18.5605C19.7765 18.5605 19.4746 18.8624 19.4746 19.2334C19.4746 19.6044 19.7764 19.9062 20.1475 19.9062C20.2422 19.9062 20.3323 19.8863 20.4141 19.8509C20.1753 19.7474 20.0078 19.5097 20.0078 19.2334Z" fill="#F3F0FF"/>
<path d="M17.5957 7.76953C19.7412 7.76953 21.4805 6.03026 21.4805 3.88477C21.4805 1.73927 19.7412 0 17.5957 0C15.4502 0 13.7109 1.73927 13.7109 3.88477C13.7109 6.03026 15.4502 7.76953 17.5957 7.76953Z" fill="#9182B0"/>
<path d="M15.7755 5.86214C15.2421 5.37093 14.9077 4.667 14.9077 3.88477C14.9077 3.10253 15.2421 2.3986 15.7755 1.90739C16.3282 0.975152 17.2592 0.293516 18.3574 0.0751563C18.1111 0.0261523 17.8565 0 17.5957 0C15.4502 0 13.7109 1.73926 13.7109 3.88477C13.7109 6.03027 15.4502 7.76953 17.5957 7.76953C17.8565 7.76953 18.1111 7.74338 18.3574 7.69438C17.2592 7.47602 16.3282 6.79438 15.7755 5.86214Z" fill="#7A6D98"/>
<path d="M17.5957 6.5722C19.0802 6.5722 20.2836 5.36876 20.2836 3.88424C20.2836 2.39973 19.0802 1.19629 17.5957 1.19629C16.1112 1.19629 14.9077 2.39973 14.9077 3.88424C14.9077 5.36876 16.1112 6.5722 17.5957 6.5722Z" fill="white"/>
<path d="M15.9522 3.88424C15.9522 2.57845 16.8834 1.49057 18.1179 1.24743C17.9489 1.21416 17.7744 1.19629 17.5957 1.19629C16.1112 1.19629 14.9077 2.3997 14.9077 3.88424C14.9077 5.36878 16.1111 6.5722 17.5957 6.5722C17.7744 6.5722 17.949 6.55432 18.1179 6.52106C16.8834 6.27792 15.9522 5.19003 15.9522 3.88424Z" fill="#F3F0FF"/>
<path d="M18.9923 4.28145H17.5801C17.476 4.28145 17.3765 4.2389 17.3047 4.16369L15.9824 2.7797C15.8371 2.62761 15.8426 2.3865 15.9947 2.24121C16.1467 2.09593 16.3878 2.10141 16.5332 2.2535L17.7429 3.51973H18.9923C19.2027 3.51973 19.3731 3.69026 19.3731 3.90059C19.3731 4.11093 19.2026 4.28145 18.9923 4.28145Z" fill="#A79BC6"/>
<path d="M17.5956 4.53991C17.9572 4.53991 18.2504 4.24678 18.2504 3.88519C18.2504 3.5236 17.9572 3.23047 17.5956 3.23047C17.234 3.23047 16.9409 3.5236 16.9409 3.88519C16.9409 4.24678 17.234 4.53991 17.5956 4.53991Z" fill="#9182B0"/>
<path d="M15.4376 15.1943H9.76123V21.012H15.6915V15.4482C15.6915 15.308 15.5778 15.1943 15.4376 15.1943Z" fill="#D88A55"/>
<path d="M9.81201 15.1942H10.9292V20.9611H9.81201V15.1942Z" fill="#C57A44"/>
<path d="M13.3101 17.1903H12.1929C12.0527 17.1903 11.939 17.0766 11.939 16.9364V15.1942H13.564V16.9364C13.564 17.0766 13.4503 17.1903 13.3101 17.1903Z" fill="#2F9BB4"/>
<path d="M12.5935 16.9364V15.1942H11.939V16.9364C11.939 17.0766 12.0527 17.1903 12.1929 17.1903H12.8474C12.7072 17.1903 12.5935 17.0766 12.5935 16.9364Z" fill="#1A869F"/>
<path d="M19.634 14.8281H18.0815C17.9974 14.8281 17.9292 14.7599 17.9292 14.6758V14.168C17.9292 14.0838 17.9974 14.0156 18.0815 14.0156H19.634C19.7181 14.0156 19.7863 14.0838 19.7863 14.168V14.6758C19.7863 14.7599 19.7181 14.8281 19.634 14.8281Z" fill="#096B82"/>
<path d="M24.7393 13.1982L22.7974 10.1055H19.1479V13.5078H24.8794C24.8468 13.3994 24.8001 13.2951 24.7393 13.1982Z" fill="white"/>
<path d="M19.1479 10.1055H20.2686V13.5078H19.1479V10.1055Z" fill="#F3F0FF"/>
<path d="M9.81201 13.1016C9.81201 12.9614 9.69831 12.8477 9.55811 12.8477H1.83936C1.69915 12.8477 1.58545 12.9614 1.58545 13.1016V18.5136C1.96479 19.386 2.44076 20.2068 3.00057 20.9617L3.19968 21.0125H9.81201V13.1016Z" fill="#F6A96C"/>
<path d="M3.1485 13.1016C3.1485 12.9614 3.2622 12.8477 3.4024 12.8477H1.83936C1.69915 12.8477 1.58545 12.9614 1.58545 13.1016V18.5136C1.96479 19.386 2.44076 20.2068 3.00057 20.9617L3.1485 20.9994V13.1016Z" fill="#EA9B58"/>
<path d="M6.46045 15.6406H4.93701C4.7968 15.6406 4.68311 15.5269 4.68311 15.3867V12.8477H6.71436V15.3867C6.71436 15.5269 6.60066 15.6406 6.46045 15.6406Z" fill="#2F9BB4"/>
<path d="M5.43365 15.3867V12.8477H4.68311V15.3867C4.68311 15.5269 4.7968 15.6406 4.93701 15.6406H5.68756C5.54735 15.6406 5.43365 15.5269 5.43365 15.3867Z" fill="#1A869F"/>
<path d="M5.06019 22.8516L4.78638 22.9023C6.97769 24.8302 9.85206 26 13 26C16.148 26 19.0224 24.8302 21.2137 22.9023L20.9399 22.8516H5.06019Z" fill="#B5ADD5"/>
<path d="M3.00049 20.9618C3.52592 21.6703 4.12494 22.3208 4.78611 22.9024H21.2138C21.875 22.3208 22.474 21.6703 22.9995 20.9618H3.00049Z" fill="#CFCAE4"/>
<path d="M24.9336 14.6504H23.9688C23.8285 14.6504 23.7148 14.7641 23.7148 14.9043V16.1738C23.7148 16.314 23.8285 16.4277 23.9688 16.4277H24.9336V14.6504Z" fill="white"/>
</g>
<defs>
<clipPath id="clip0_1989_16863">
<rect width="26" height="26" fill="white"/>
</clipPath>
</defs>
</svg>
